<svg width="512" height="512" viewBox="0 0 512 512" fill="none" xmlns="http://www.w3.org/2000/svg">
<g clip-path="url(#clip0_7_662)">
<path d="M444.763 84.5566C421.482 84.5566 400.927 96.4496 388.854 114.48C376.162 90.3686 350.85 73.8906 321.763 73.8906C293.658 73.8906 269.077 89.2736 256 112.063C242.923 89.2736 218.343 73.8906 190.237 73.8906C161.149 73.8906 135.838 90.3686 123.146 114.48C111.073 96.4496 90.518 84.5566 67.237 84.5566C30.162 84.5566 0 114.719 0 151.794V237.764C0 243.287 4.478 247.764 10 247.764H114.475V248.43C114.475 253.953 118.953 258.43 124.475 258.43H276.186C281.708 258.43 286.186 253.953 286.186 248.43C286.186 242.907 281.708 238.43 276.186 238.43H266V191.298H289.295V192.022C289.295 204.012 299.049 213.767 311.039 213.767H332.486C344.476 213.767 354.23 204.013 354.23 192.022V191.298H377.525V238.43H366.597C361.075 238.43 356.597 242.907 356.597 248.43C356.597 253.953 361.075 258.43 366.597 258.43H387.525C393.047 258.43 397.525 253.953 397.525 248.43V247.764H502C507.522 247.764 512 243.287 512 237.764V151.794C512 114.719 481.838 84.5566 444.763 84.5566ZM114.475 227.764H20V191.298H40.418C40.452 200.579 48.012 208.118 57.3 208.118H77.173C86.461 208.118 94.021 200.579 94.055 191.298H114.473V227.764H114.475ZM60.418 188.118V174.478H74.057V188.118H60.418ZM114.475 171.298H94.056C94.022 162.017 86.462 154.478 77.174 154.478H57.301C48.013 154.478 40.453 162.017 40.419 171.298H20V151.794C20 125.747 41.19 104.557 67.237 104.557C93.284 104.557 114.474 125.747 114.474 151.794L114.475 171.298ZM246 238.43H134.475V191.298H157.77V192.022C157.77 204.012 167.524 213.767 179.514 213.767H200.961C212.951 213.767 222.705 204.013 222.705 192.022V191.298H246V238.43ZM177.77 192.021V170.574C177.77 169.612 178.552 168.829 179.514 168.829H200.961C201.923 168.829 202.705 169.612 202.705 170.574V192.021C202.705 192.983 201.923 193.766 200.961 193.766H179.514C178.552 193.766 177.77 192.983 177.77 192.021ZM246 171.298H222.705V170.575C222.705 158.585 212.951 148.83 200.961 148.83H179.514C167.524 148.83 157.77 158.585 157.77 170.575V171.298H134.475V149.654C134.475 118.906 159.49 93.8906 190.238 93.8906C220.986 93.8906 246 118.906 246 149.654V171.298ZM334.23 192.021C334.23 192.983 333.448 193.766 332.486 193.766H311.039C310.077 193.766 309.295 192.983 309.295 192.021V170.574C309.295 169.612 310.077 168.829 311.039 168.829H332.486C333.448 168.829 334.23 169.612 334.23 170.574V192.021ZM377.525 171.298H354.23V170.575C354.23 158.585 344.476 148.83 332.486 148.83H311.039C299.049 148.83 289.295 158.585 289.295 170.575V171.298H266V149.654C266 118.906 291.015 93.8906 321.763 93.8906C352.511 93.8906 377.526 118.906 377.526 149.654V171.298H377.525ZM492 227.764H397.525V191.298H417.943C417.977 200.579 425.537 208.118 434.825 208.118H454.698C463.986 208.118 471.546 200.579 471.58 191.298H492V227.764ZM437.943 188.118V174.478H451.582V188.118H437.943ZM492 171.298H471.582C471.548 162.017 463.988 154.478 454.7 154.478H434.827C425.539 154.478 417.979 162.017 417.945 171.298H397.527V151.794C397.527 125.747 418.717 104.557 444.764 104.557C470.811 104.557 492 125.747 492 151.794V171.298Z" fill="#219BDA"/>
<path d="M321.569 258.429C317.448 258.429 313.669 255.799 312.219 251.947C310.741 248.019 311.937 243.418 315.18 240.74C318.292 238.171 322.72 237.744 326.282 239.613C330.016 241.571 332.143 245.907 331.438 250.058C330.631 254.821 326.416 258.429 321.569 258.429Z" fill="#E68D3B"/>
<path d="M499.776 337.508H485.255V291.594C485.255 286.071 480.777 281.594 475.255 281.594H38.7661C33.2441 281.594 28.7661 286.071 28.7661 291.594V337.508H12.2241C6.70212 337.508 2.22412 341.985 2.22412 347.508C2.22412 353.031 6.70212 357.508 12.2241 357.508H28.7661V373.545C28.7661 409.144 57.7281 438.106 93.3281 438.106C116.257 438.106 136.432 426.091 147.89 408.027C159.347 426.091 179.522 438.106 202.451 438.106C225.38 438.106 245.555 426.091 257.013 408.027C268.47 426.091 288.645 438.106 311.574 438.106C334.503 438.106 354.678 426.091 366.136 408.027C377.593 426.091 397.768 438.106 420.697 438.106C456.297 438.106 485.259 409.144 485.259 373.545V357.508H499.78C505.302 357.508 509.78 353.031 509.78 347.508C509.78 341.985 505.299 337.508 499.776 337.508ZM465.255 337.508H447.513C447.479 328.228 439.919 320.688 430.631 320.688H410.757C401.468 320.688 393.909 328.228 393.875 337.508H376.133V301.594H465.255V337.508ZM427.514 340.688V354.328H413.874V340.688H427.514ZM356.133 337.508H338.391C338.357 328.228 330.796 320.688 321.508 320.688H301.635C292.346 320.688 284.787 328.228 284.753 337.508H267.011V301.594H356.133V337.508ZM318.392 340.688V354.328H304.752V340.688H318.392ZM247.011 337.508H229.269C229.235 328.228 221.674 320.688 212.386 320.688H192.513C183.224 320.688 175.665 328.228 175.631 337.508H157.889V301.594H247.011V337.508ZM209.27 340.688V354.328H195.63V340.688H209.27ZM48.7661 301.594H137.889V337.508H120.146C120.112 328.228 112.552 320.688 103.264 320.688H83.3911C74.1021 320.688 66.5431 328.228 66.5091 337.508H48.7661V301.594ZM100.146 340.688V354.328H86.5081V340.688H100.146ZM93.3271 418.106C68.7561 418.106 48.7651 398.116 48.7651 373.545V357.508H66.5081C66.5421 366.789 74.1021 374.328 83.3901 374.328H103.263C112.551 374.328 120.111 366.789 120.145 357.508H137.888V373.545C137.889 398.116 117.898 418.106 93.3271 418.106ZM202.449 418.106C177.879 418.106 157.888 398.116 157.888 373.545V357.508H175.63C175.664 366.789 183.224 374.328 192.512 374.328H212.385C221.673 374.328 229.234 366.789 229.268 357.508H247.01V373.545C247.011 398.116 227.021 418.106 202.449 418.106ZM311.571 418.106C287.001 418.106 267.01 398.116 267.01 373.545V357.508H284.752C284.786 366.789 292.346 374.328 301.634 374.328H321.507C330.795 374.328 338.356 366.789 338.39 357.508H356.132V373.545C356.133 398.116 336.143 418.106 311.571 418.106ZM465.255 373.545C465.255 398.116 445.265 418.106 420.693 418.106C396.123 418.106 376.132 398.116 376.132 373.545V357.508H393.874C393.908 366.789 401.468 374.328 410.756 374.328H430.63C439.918 374.328 447.478 366.789 447.512 357.508H465.254V373.545H465.255Z" fill="#17C8DA"/>
</g>
<defs>
<clipPath id="clip0_7_662">
<rect width="512" height="512" fill="white"/>
</clipPath>
</defs>
</svg>
