<svg width="512" height="512" viewBox="0 0 512 512" fill="none" xmlns="http://www.w3.org/2000/svg">
<g clip-path="url(#clip0_7_588)">
<path d="M274.014 395.515C269.845 395.515 265.995 392.813 264.599 388.883C263.219 385 264.392 380.56 267.545 377.894C270.832 375.114 275.631 374.775 279.29 377.029C282.79 379.185 284.625 383.45 283.814 387.476C282.884 392.087 278.726 395.515 274.014 395.515Z" fill="#E68D3B"/>
<path fill-rule="evenodd" clip-rule="evenodd" d="M470.288 218.074C494.714 225.877 512 248.751 512 275.288C512 290.618 506.115 305.335 495.697 316.427C497.277 321.378 498.128 326.645 498.128 332.091C498.128 360.461 475.048 383.541 446.678 383.541C432.83 383.541 419.805 377.935 410.31 368.469C402.062 378.837 389.368 385.268 375.434 385.268C368.835 385.268 362.566 383.824 356.928 381.238C353.381 398.291 345.39 414.285 333.7 427.39C318.589 444.332 297.997 455.709 275.719 459.424C275.172 459.515 274.621 459.56 274.074 459.56C271.73 459.56 269.441 458.736 267.624 457.202C265.382 455.31 264.084 452.529 264.074 449.595L264.01 430.779C263.992 425.256 268.454 420.765 273.976 420.746H274.011C279.518 420.746 283.991 425.2 284.01 430.711L284.031 436.843C314.552 426.819 336.758 398.797 338.847 366.103C333.834 358.899 330.893 350.15 330.893 340.727C330.893 334.257 332.316 327.94 334.953 322.19C326.072 320.629 316.115 316.977 308.161 309.023C299.884 300.746 295.326 289.743 295.326 278.037C295.326 270.294 297.321 262.859 301.066 256.317C295.36 253.673 290.353 250.21 286.1 245.958C276.495 236.352 271.205 223.584 271.205 210.001C271.205 196.415 276.495 183.645 286.101 174.043C295.701 164.442 308.468 159.152 322.05 159.152C336.134 159.152 347.101 164.226 354.296 168.993C356.534 166.205 359.438 162.926 363.197 159.166C375.108 147.254 390.946 140.694 407.795 140.694C412.728 140.694 417.575 141.257 422.262 142.352C418.028 127.527 410.639 114.001 400.47 102.614C383.097 83.1608 359.189 72.447 333.147 72.447C330.248 72.447 318.03 74.155 282.508 96.1366C273.351 101.804 263.243 105.04 252.998 105.849C277.078 116.878 305.241 117.367 330.754 105.842C335.788 103.567 341.709 105.805 343.984 110.838C346.258 115.871 344.021 121.794 338.988 124.068C324.064 130.809 308.197 134.222 292.169 134.222C283.989 134.222 275.769 133.334 267.606 131.547C243.446 126.257 222.102 113.593 205.877 94.9246L200.141 88.3237C174.6 73.726 165.11 72.446 162.601 72.446C136.559 72.446 112.65 83.1598 95.2777 102.614C78.5589 121.334 69.3521 146.027 69.3521 172.142C69.3521 180.897 71.1081 189.551 74.708 198.501L52.6683 195.804C50.4454 187.928 49.3524 180.099 49.3524 172.141C49.3524 141.105 60.3642 111.681 80.3599 89.2907C101.58 65.5301 130.786 52.4453 162.601 52.4453C167.064 52.4453 180.643 52.4453 223.763 79.1289C238.635 88.3318 257.112 88.3318 271.985 79.1289C315.104 52.4453 328.684 52.4453 333.147 52.4453C364.961 52.4453 394.168 65.5311 415.388 89.2907C431.155 106.948 441.334 128.837 444.946 152.779C447.565 154.696 450.056 156.829 452.395 159.168C470.589 177.361 473.818 199.895 470.288 218.074ZM160.659 425.797C145.977 408.624 137.574 386.934 136.797 364.387L156.738 360.954C156.738 396.08 179.232 426.325 211.673 436.856V332.755L231.674 319.896V449.558C231.674 452.498 230.38 455.288 228.137 457.188C226.319 458.729 224.024 459.558 221.674 459.558C221.127 459.558 220.577 459.513 220.029 459.422C196.995 455.581 175.91 443.639 160.659 425.797ZM232.152 315.884C233.877 308.769 240.065 303.353 247.412 303.151C251.851 303.03 256.007 304.657 259.168 307.732C262.333 310.811 264.075 314.937 264.075 319.32L264.011 339.882C263.993 345.405 268.457 349.896 273.98 349.913H274.012C279.52 349.913 283.993 345.456 284.011 339.944L284.075 319.351C284.075 309.491 280.182 300.273 273.115 293.398C266.051 286.525 256.741 282.878 246.863 283.16C243 283.266 239.281 284.004 235.801 285.274L232.152 315.884ZM300.241 188.186C294.414 194.012 291.205 201.758 291.205 210C291.205 218.24 294.414 225.987 300.239 231.816C304.313 235.891 309.711 238.847 316.304 240.621C323.11 236.448 330.954 234.217 339.141 234.217C350.374 234.217 359.305 237.992 365.474 241.821C367.215 239.732 369.357 237.367 371.992 234.732C382.18 224.546 395.724 218.936 410.133 218.936C424.542 218.936 438.087 224.548 448.276 234.735C463.327 249.785 466.391 268.311 463.832 283.565C472.113 286.483 479.376 291.444 485.062 297.814C489.538 291.228 491.999 283.387 491.999 275.29C491.999 254.958 476.8 237.852 456.644 235.498C453.58 235.14 450.853 233.389 449.253 230.752C447.653 228.114 447.361 224.886 448.46 222.004C450.951 215.467 457.579 192.637 438.252 173.311C430.116 165.176 419.3 160.695 407.795 160.695C396.289 160.695 385.474 165.175 377.34 173.308C368.984 181.665 366.304 186.515 365.845 187.416C364.76 190.814 362.035 193.085 358.53 193.839C354.969 194.607 351.384 193.067 348.992 190.323C348.633 189.926 338.722 179.151 322.051 179.151C313.811 179.151 306.066 182.36 300.241 188.186ZM418.029 345.084C423.125 356.296 434.37 363.54 446.68 363.54C464.021 363.54 478.131 349.432 478.133 332.09C478.133 316.13 466.202 302.701 450.381 300.854C447.317 300.496 444.59 298.744 442.99 296.108C441.39 293.47 441.098 290.241 442.197 287.359C444.166 282.192 449.408 264.146 434.136 248.875C427.725 242.464 419.202 238.933 410.136 238.933C401.071 238.933 392.547 242.463 386.138 248.873C379.682 255.329 377.455 259.144 377 259.997C375.936 263.45 373.255 265.787 369.699 266.537C366.095 267.295 362.553 265.726 360.181 262.909C359.504 262.182 351.804 254.216 339.144 254.216C332.783 254.216 326.802 256.693 322.304 261.192C317.803 265.691 315.325 271.673 315.325 278.036C315.325 284.399 317.804 290.381 322.304 294.881C332.863 305.439 351.68 303.133 353.793 302.836C354.261 302.77 354.73 302.738 355.193 302.738C359.222 302.738 362.919 305.175 364.461 308.996C366.18 313.256 364.776 318.14 361.057 320.835C354.693 325.447 350.894 332.882 350.894 340.726C350.894 354.258 361.903 365.267 375.436 365.267C386.691 365.267 396.476 357.662 399.231 346.77C400.272 342.652 403.802 339.641 408.032 339.262C412.269 338.882 416.271 341.217 418.029 345.084Z" fill="#219BDA"/>
<path fill-rule="evenodd" clip-rule="evenodd" d="M52.6683 195.804C50.6614 195.955 48.6504 196.213 46.6444 196.583C31.6867 199.337 18.6969 207.752 10.067 220.277C1.43814 232.801 -1.79681 247.937 0.95715 262.895C5.47908 287.449 25.2538 305.715 49.1234 309.002C49.1014 326.414 56.0393 346.568 75.897 360.25C85.9858 367.199 97.6866 370.816 109.678 370.816C113.313 370.816 116.975 370.484 120.627 369.811C126.33 368.761 131.76 366.927 136.797 364.387L156.738 360.954V348.04C157.526 347.038 158.285 346.007 159.014 344.949C161.698 341.055 163.75 337.681 165.32 334.811C172.84 337.932 183.732 340.597 196.559 338.234C201.951 337.241 207.041 335.381 211.673 332.755L231.674 319.896C231.674 318.517 231.84 317.173 232.152 315.884L235.801 285.274C235.675 284.178 235.512 283.081 235.31 281.986C232.974 269.298 225.836 258.278 215.211 250.958C204.382 243.497 192.06 241.719 181.682 242.051C183.791 234.796 184.239 227.059 182.839 219.46C177.933 192.823 152.274 175.141 125.638 180.05C110.008 182.927 97.1907 193 90.4828 206.57C85.6648 203.07 80.3359 200.351 74.708 198.501L52.6683 195.804ZM98.1746 235.393C94.0857 236.532 89.7178 234.962 87.2888 231.478C79.0189 219.612 64.4922 213.636 50.2664 216.252C40.5625 218.039 32.1347 223.499 26.5368 231.624C20.9388 239.748 18.8399 249.568 20.6268 259.272C24.0218 277.708 40.6575 290.685 59.3312 289.451C59.5512 289.437 59.7712 289.43 59.9902 289.43C62.8342 289.43 65.5561 290.642 67.4591 292.782C69.5101 295.086 70.3831 298.207 69.8241 301.241C68.6521 307.597 66.4471 329.452 87.2448 343.78C95.9907 349.806 106.566 352.065 117.005 350.143C127.451 348.22 136.522 342.345 142.545 333.6C148.696 324.673 150.36 319.817 150.65 318.864C151.092 315.322 153.354 312.604 156.665 311.219C160.029 309.811 163.845 310.691 166.699 312.961C167.081 313.252 177.853 321.341 192.936 318.563C200.37 317.194 206.825 313.013 211.112 306.789C215.403 300.564 217.01 293.043 215.641 285.607C214.272 278.173 210.09 271.716 203.864 267.427C189.409 257.468 168.345 264.073 165.991 264.858C161.635 266.313 156.846 264.612 154.383 260.733C151.921 256.854 152.418 251.797 155.588 248.472C162.022 241.724 164.857 232.233 163.171 223.081C160.263 207.29 145.04 196.809 129.261 199.718C116.127 202.137 106.346 213.115 105.472 226.416C105.194 230.654 102.268 234.253 98.1746 235.393Z" fill="#17C8DA"/>
</g>
<defs>
<clipPath id="clip0_7_588">
<rect width="512" height="512" fill="white"/>
</clipPath>
</defs>
</svg>
