<svg width="64" height="64" viewBox="0 0 64 64" fill="none" xmlns="http://www.w3.org/2000/svg">
<path d="M46.3 9.61987L46.68 9.85987C46.8977 9.99499 47.1589 10.0414 47.4099 9.98949C47.6608 9.93759 47.8822 9.79137 48.0284 9.58098C48.1747 9.3706 48.2346 9.11211 48.1958 8.85884C48.157 8.60557 48.0225 8.37685 47.82 8.21987C46.06 6.99987 45.26 8.99987 46.3 9.61987Z" fill="#291BF3"/>
<path d="M56.9998 22.0001H53.7898C54.1401 20.0674 54.0639 18.0816 53.5664 16.1815C53.0689 14.2815 52.1622 12.513 50.9098 11.0001C50.8258 10.8988 50.7227 10.8151 50.6064 10.7537C50.49 10.6924 50.3627 10.6546 50.2318 10.6425C50.1008 10.6304 49.9687 10.6443 49.8431 10.6834C49.7175 10.7224 49.6008 10.7859 49.4998 10.8701C47.9798 12.1201 51.4998 13.1001 51.9498 18.5501C52.095 20.0597 51.941 21.5831 51.4966 23.0331C51.0521 24.4831 50.326 25.8311 49.3598 27.0001C45.7598 31.3701 45.4998 35.7001 43.4698 45.5001C43.3389 46.1004 43.0354 46.6493 42.5965 47.0793C42.1577 47.5093 41.6026 47.8015 40.9998 47.9201V45.1401C41.2798 44.1401 42.9998 37.8601 43.6398 34.7201C45.2398 27.0801 48.4798 26.2401 49.6398 22.1701C50.1002 20.4882 50.0948 18.7128 49.6243 17.0338C49.1537 15.3548 48.2356 13.8352 46.9682 12.6376C45.7007 11.44 44.1316 10.6095 42.4287 10.2347C40.7257 9.85997 38.9529 9.95514 37.2998 10.5101C33.8658 11.6949 30.1338 11.6949 26.6998 10.5101C25.4833 10.0854 24.1926 9.91517 22.9077 10.0098C21.6228 10.1044 20.3709 10.4619 19.2298 11.0601C19.015 11.1944 18.8593 11.4053 18.794 11.6501C18.7287 11.8949 18.7588 12.1554 18.8782 12.3789C18.9975 12.6023 19.1973 12.7722 19.437 12.8541C19.6768 12.936 19.9387 12.9238 20.1698 12.8201C21.0632 12.3606 22.0406 12.0874 23.0427 12.0169C24.0449 11.9464 25.0509 12.0802 25.9998 12.4101C29.8864 13.7603 34.1154 13.7567 37.9998 12.4001C45.0898 9.91005 51.1698 18.5301 46.3198 24.4001C42.5198 29.0001 41.9998 33.3601 40.9998 37.2601C40.9998 27.1201 41.2898 29.5401 40.0998 26.5701L41.4498 25.8901C41.6661 25.7599 41.8252 25.5527 41.8951 25.31C41.965 25.0674 41.9405 24.8073 41.8266 24.582C41.7127 24.3567 41.5177 24.1828 41.2809 24.0952C41.0441 24.0077 40.7829 24.013 40.5498 24.1101L39.3598 24.7001L39.1098 24.0901L41.8598 19.5101C41.9617 19.2845 41.9764 19.0291 41.9009 18.7933C41.8254 18.5575 41.6652 18.3581 41.4511 18.2337C41.2371 18.1093 40.9846 18.0687 40.7423 18.1197C40.5001 18.1708 40.2854 18.3098 40.1398 18.5101L39.6598 19.3101L38.7198 18.3101C38.5321 18.1413 38.2876 18.0497 38.0353 18.0537C37.7829 18.0577 37.5414 18.157 37.3592 18.3316C37.177 18.5062 37.0675 18.7433 37.0528 18.9952C37.0381 19.2472 37.1192 19.4954 37.2798 19.6901L38.5998 21.0601C37.1298 23.5101 36.8298 23.7601 37.0698 24.3701L38.9998 29.1901V36.2801C38.4555 34.8652 37.4953 33.6484 36.2457 32.7902C34.9961 31.932 33.5157 31.4726 31.9998 31.4726C30.4838 31.4726 29.0035 31.932 27.7539 32.7902C26.5042 33.6484 25.544 34.8652 24.9998 36.2801V31.6201L26.4498 30.8901C26.6661 30.7599 26.8252 30.5527 26.8951 30.31C26.965 30.0674 26.9405 29.8073 26.8266 29.582C26.7127 29.3567 26.5177 29.1828 26.2809 29.0952C26.0441 29.0077 25.7829 29.013 25.5498 29.1101C24.6398 29.5601 24.6498 30.0601 26.9298 24.3701C27.1698 23.7601 26.9298 23.5401 25.3998 21.0601L26.7198 19.6901C26.8804 19.4954 26.9615 19.2472 26.9468 18.9952C26.932 18.7433 26.8226 18.5062 26.6404 18.3316C26.4582 18.157 26.2167 18.0577 25.9643 18.0537C25.712 18.0497 25.4674 18.1413 25.2798 18.3101L24.3398 19.3101L23.8598 18.5201C23.7142 18.3198 23.4995 18.1808 23.2572 18.1297C23.015 18.0787 22.7624 18.1193 22.5484 18.2437C22.3344 18.3681 22.1741 18.5675 22.0987 18.8033C22.0232 19.0391 22.0378 19.2945 22.1398 19.5201L24.4998 23.4501L23.3098 23.0601C23.061 22.989 22.7943 23.0172 22.5659 23.1387C22.3374 23.2602 22.165 23.4655 22.0847 23.7114C22.0044 23.9574 22.0226 24.2249 22.1355 24.4578C22.2483 24.6906 22.447 24.8706 22.6898 24.9601L24.3298 25.5001C22.9998 28.8501 22.9998 28.7301 22.9998 29.0001V37.2501C22.7298 36.1601 22.4898 35.1301 22.3298 34.3301C20.6298 26.2701 17.2498 25.0301 16.3298 21.6401C16.0118 20.5317 15.9564 19.3644 16.1682 18.2309C16.38 17.0974 16.853 16.0288 17.5498 15.1101C17.7089 14.8979 17.7772 14.6312 17.7397 14.3686C17.7022 14.1061 17.562 13.8692 17.3498 13.7101C17.1376 13.5509 16.8709 13.4826 16.6084 13.5201C16.3458 13.5576 16.1089 13.6979 15.9498 13.9101C15.066 15.0769 14.4666 16.4338 14.1993 17.8729C13.932 19.312 14.004 20.7937 14.4098 22.2001C15.5598 26.2001 18.7898 27.0001 20.4098 34.7401C21.0498 37.8601 22.7598 44.1201 23.0398 45.1401V47.9201C22.4314 47.7955 21.873 47.4951 21.4339 47.056C20.9948 46.6169 20.6943 46.0584 20.5698 45.4501C19.6498 41.0201 19.5698 40.4501 19.1898 38.7801C19.1341 38.5148 18.9753 38.2826 18.7484 38.1345C18.5215 37.9863 18.245 37.9344 17.9798 37.9901C17.7146 38.0458 17.4823 38.2045 17.3342 38.4314C17.186 38.6584 17.1341 38.9348 17.1898 39.2001C17.5198 40.7401 17.5398 40.8501 18.5698 45.8501C18.7917 46.9076 19.3376 47.8697 20.1315 48.6026C20.9254 49.3356 21.928 49.8031 22.9998 49.9401V52.0001C22.9998 52.2653 23.1051 52.5196 23.2927 52.7072C23.4802 52.8947 23.7346 53.0001 23.9998 53.0001C24.265 53.0001 24.5194 52.8947 24.7069 52.7072C24.8944 52.5196 24.9998 52.2653 24.9998 52.0001V49.8101C28.8498 48.8101 28.8798 45.3301 30.5198 38.6301C30.5781 38.2743 30.7609 37.9508 31.0357 37.7174C31.3105 37.484 31.6593 37.3558 32.0198 37.3558C32.3803 37.3558 32.7291 37.484 33.0039 37.7174C33.2786 37.9508 33.4615 38.2743 33.5198 38.6301C35.9098 48.4301 35.1998 45.3901 35.3298 46.0401C35.5494 46.9399 36.0054 47.7647 36.6506 48.4292C37.2958 49.0938 38.1068 49.5739 38.9998 49.8201V51.0001C38.9998 51.2653 39.1051 51.5196 39.2927 51.7072C39.4802 51.8947 39.7346 52.0001 39.9998 52.0001C40.265 52.0001 40.5194 51.8947 40.7069 51.7072C40.8944 51.5196 40.9998 51.2653 40.9998 51.0001V49.9401C41.9593 49.8274 42.8674 49.4461 43.6198 48.8401C45.5198 47.3001 45.3398 46.3501 47.5498 35.5401C48.9498 28.8401 51.6598 28.6901 53.2698 24.0001H55.9998V40.0001C55.9438 42.1095 55.5487 44.1961 54.8298 46.1801C54.8301 46.4151 54.9131 46.6426 55.0644 46.8225C55.2158 47.0024 55.4256 47.1233 55.6572 47.1639C55.8887 47.2044 56.1271 47.1622 56.3306 47.0444C56.5341 46.9267 56.6896 46.741 56.7698 46.5201C58.4498 42.2601 57.9998 40.1501 57.9998 23.0001C57.9998 22.7348 57.8944 22.4805 57.7069 22.2929C57.5194 22.1054 57.265 22.0001 56.9998 22.0001ZM28.5798 38.1501C26.7298 45.7001 26.8798 46.8301 24.9998 47.7001C24.9998 44.2501 24.6998 46.4901 26.6398 37.7001C26.9348 36.5014 27.6232 35.4362 28.5948 34.6747C29.5665 33.9132 30.7653 33.4994 31.9998 33.4994C33.2343 33.4994 34.4331 33.9132 35.4047 34.6747C36.3764 35.4362 37.0647 36.5014 37.3598 37.7001C39.2998 46.5201 38.9998 44.2901 38.9998 47.7001C37.1098 46.7801 37.1798 45.4001 35.4198 38.1701C35.2354 37.4032 34.7988 36.7206 34.1801 36.2315C33.5613 35.7425 32.7963 35.4754 32.0076 35.4731C31.219 35.4708 30.4524 35.7334 29.8308 36.2188C29.2092 36.7042 28.7687 37.3843 28.5798 38.1501Z" fill="#229BDA"/>
<path d="M53.13 49.1299C51.7574 51.116 49.9532 52.7657 47.8525 53.9554C45.7519 55.1452 43.4092 55.8441 41 55.9999V53.9999C41 53.7347 40.8946 53.4804 40.7071 53.2928C40.5196 53.1053 40.2652 52.9999 40 52.9999C39.7348 52.9999 39.4804 53.1053 39.2929 53.2928C39.1054 53.4804 39 53.7347 39 53.9999V55.9999H25V54.9999C25 54.7347 24.8946 54.4804 24.7071 54.2928C24.5196 54.1053 24.2652 53.9999 24 53.9999C23.7348 53.9999 23.4804 54.1053 23.2929 54.2928C23.1054 54.4804 23 54.7347 23 54.9999V55.9999C18.9322 55.7452 15.115 53.9477 12.3274 50.9743C9.53979 48.0009 7.99203 44.0757 8 39.9999V23.9999H10.73C11.2742 25.5342 12.0756 26.9647 13.1 28.2299C16.23 32.0299 16.01 35.3599 16.8 35.9099C16.9625 36.0214 17.1544 36.0823 17.3515 36.0851C17.5485 36.0878 17.742 36.0323 17.9076 35.9255C18.0732 35.8186 18.2035 35.6652 18.2823 35.4846C18.361 35.3039 18.3845 35.104 18.35 34.9099C16.78 27.7699 13.72 27.3499 12.43 22.7499C11.864 20.7145 11.8636 18.5634 12.4288 16.5278C12.9941 14.4922 14.1036 12.6492 15.638 11.197C17.1724 9.74489 19.0737 8.73854 21.1373 8.28622C23.201 7.8339 25.3489 7.95273 27.35 8.62994C35 11.2599 36.72 6.83994 42.9 8.26994C43.1486 8.30853 43.4026 8.25199 43.6114 8.1116C43.8202 7.97121 43.9684 7.75728 44.0264 7.51249C44.0845 7.26769 44.0481 7.01 43.9246 6.79082C43.8011 6.57164 43.5995 6.40708 43.36 6.32994C40.9136 5.77925 38.3624 5.91771 35.99 6.72994C29.65 8.91994 28.36 5.52994 22.38 6.04994C20.5058 6.23167 18.6893 6.79809 17.0439 7.71377C15.3986 8.62945 13.9599 9.87471 12.8177 11.3717C11.6754 12.8687 10.8543 14.5852 10.4056 16.4139C9.95696 18.2427 9.89036 20.1443 10.21 21.9999H7C6.73478 21.9999 6.48043 22.1053 6.29289 22.2928C6.10536 22.4804 6 22.7347 6 22.9999V39.9999C6 44.7738 7.89642 49.3522 11.2721 52.7279C14.6477 56.1035 19.2261 57.9999 24 57.9999H40C42.9028 57.9979 45.762 57.2939 48.3338 55.9479C50.9056 54.6019 53.1138 52.6539 54.77 50.2699C54.9051 50.0522 54.9515 49.791 54.8996 49.5401C54.8477 49.2892 54.7015 49.0677 54.4911 48.9215C54.2807 48.7752 54.0222 48.7153 53.769 48.7541C53.5157 48.7929 53.287 48.9274 53.13 49.1299Z" fill="#291BF3"/>
</svg>
