<svg width="512" height="512" viewBox="0 0 512 512" fill="none" xmlns="http://www.w3.org/2000/svg">
<path d="M181.984 239.686C176.461 239.686 171.984 235.209 171.984 229.686V212.859C171.984 207.336 176.461 202.859 181.984 202.859C187.507 202.859 191.984 207.336 191.984 212.859V229.686C191.984 235.209 187.507 239.686 181.984 239.686Z" fill="#219BDA"/>
<path d="M307.133 239.686C301.61 239.686 297.133 235.209 297.133 229.686V212.859C297.133 207.336 301.61 202.859 307.133 202.859C312.656 202.859 317.133 207.336 317.133 212.859V229.686C317.133 235.209 312.656 239.686 307.133 239.686Z" fill="#219BDA"/>
<path d="M244.559 293.603C223.841 293.603 206.985 276.747 206.985 256.028V243.773C206.985 238.25 211.462 233.773 216.985 233.773H272.134C277.657 233.773 282.134 238.25 282.134 243.773V256.028C282.133 276.747 265.277 293.603 244.559 293.603ZM226.984 253.773V256.028C226.984 265.719 234.868 273.603 244.558 273.603C254.249 273.603 262.133 265.719 262.133 256.028V253.773H226.984Z" fill="#219BDA"/>
<path d="M54.703 477.283C50.954 477.283 47.521 475.187 45.808 471.852L32.103 445.173L5.429 431.465C2.096 429.752 0 426.319 0 422.571C0 418.823 2.096 415.39 5.429 413.677L32.103 399.969L45.808 373.29C47.521 369.956 50.954 367.859 54.703 367.859C58.452 367.859 61.885 369.955 63.598 373.29L77.303 399.969L103.977 413.677C107.31 415.39 109.406 418.823 109.406 422.571C109.406 426.319 107.31 429.752 103.977 431.465L77.303 445.173L63.598 471.852C61.885 475.187 58.451 477.283 54.703 477.283ZM31.878 422.571L44.101 428.853C45.959 429.808 47.471 431.32 48.425 433.178L54.702 445.399L60.98 433.178C61.935 431.32 63.446 429.808 65.304 428.853L77.527 422.571L65.304 416.289C63.446 415.334 61.934 413.822 60.98 411.964L54.702 399.743L48.425 411.964C47.47 413.822 45.959 415.334 44.101 416.289L31.878 422.571Z" fill="#17C8DA"/>
<path d="M447.298 141.154C443.549 141.154 440.116 139.058 438.403 135.723L421.304 102.437L388.025 85.3346C384.692 83.6216 382.596 80.1886 382.596 76.4406C382.596 72.6926 384.692 69.2596 388.025 67.5466L421.304 50.4436L438.403 17.1576C440.116 13.8236 443.549 11.7266 447.298 11.7266C451.047 11.7266 454.48 13.8226 456.193 17.1576L473.292 50.4436L506.571 67.5466C509.904 69.2596 512 72.6926 512 76.4406C512 80.1886 509.904 83.6216 506.571 85.3346L473.292 102.437L456.193 135.723C454.48 139.058 451.047 141.154 447.298 141.154ZM414.475 76.4406L433.303 86.1166C435.161 87.0716 436.673 88.5836 437.627 90.4416L447.298 109.269L456.969 90.4416C457.924 88.5836 459.435 87.0716 461.293 86.1166L480.121 76.4406L461.293 66.7646C459.435 65.8096 457.923 64.2976 456.969 62.4396L447.298 43.6126L437.627 62.4396C436.673 64.2976 435.161 65.8096 433.303 66.7646L414.475 76.4406Z" fill="#E68D3B"/>
<path d="M270.71 436.198C266.587 436.198 262.804 433.566 261.35 429.716C259.876 425.813 261.053 421.264 264.238 418.572C267.438 415.867 272.066 415.457 275.7 417.536C279.307 419.599 281.288 423.868 280.545 427.954C279.69 432.652 275.505 436.198 270.71 436.198Z" fill="#17C8DA"/>
<path d="M412.135 129.851C390.908 106.082 361.691 92.9922 329.865 92.9922C325.401 92.9922 311.817 92.9922 268.68 119.685C253.801 128.892 235.316 128.892 220.436 119.685C177.299 92.9922 163.715 92.9922 159.252 92.9922C127.426 92.9922 98.2089 106.082 76.9809 129.852C56.9779 152.251 45.9619 181.686 45.9619 212.734C45.9619 250.064 70.8929 279.857 95.0039 308.668C98.3409 312.656 101.426 316.243 104.409 319.712C124.303 342.849 133.383 353.409 133.383 385.546V401.623C133.383 425.403 141.881 448.44 157.312 466.492C172.569 484.34 193.661 496.286 216.702 500.129C219.6 500.611 222.567 499.796 224.81 497.896C227.053 495.996 228.347 493.206 228.347 490.266V360.548C228.347 351.547 235.412 344.03 244.097 343.792C248.517 343.683 252.698 345.298 255.86 348.376C259.027 351.457 260.77 355.585 260.77 359.971L260.706 380.542C260.689 386.065 265.152 390.556 270.675 390.573H270.707C276.215 390.573 280.689 386.116 280.707 380.604L280.771 360.002C280.771 350.139 276.877 340.919 269.808 334.041C262.742 327.166 253.418 323.534 243.549 323.799C224.139 324.331 208.348 340.817 208.348 360.547V477.56C175.89 467.027 153.384 436.766 153.384 401.622V385.545C153.384 345.992 140.658 331.192 119.574 306.672C116.634 303.253 113.594 299.716 110.343 295.832C83.5349 263.797 65.9639 240.707 65.9639 212.733C65.9639 186.606 75.1749 161.902 91.9009 143.173C109.282 123.71 133.202 112.991 159.254 112.991C161.764 112.991 171.258 114.272 196.812 128.877L202.55 135.481C218.78 154.157 240.133 166.826 264.301 172.117C272.467 173.905 280.689 174.793 288.872 174.793C304.907 174.793 320.78 171.379 335.708 164.635C340.741 162.361 342.978 156.438 340.704 151.405C338.431 146.372 332.506 144.135 327.474 146.409C301.945 157.944 273.762 157.451 249.667 146.409C259.921 145.602 270.04 142.363 279.206 136.691C314.744 114.7 326.967 112.991 329.866 112.991C355.918 112.991 379.837 123.71 397.218 143.172C413.944 161.901 423.155 186.605 423.155 212.733C423.155 240.706 405.583 263.797 378.776 295.832C375.525 299.717 372.484 303.253 369.545 306.672C348.462 331.193 335.736 345.993 335.736 385.545V401.622C335.736 436.783 313.212 467.055 280.728 477.574L280.707 471.406C280.688 465.895 276.215 461.44 270.708 461.44H270.673C265.15 461.459 260.688 465.951 260.707 471.474L260.771 490.298C260.781 493.232 262.079 496.013 264.321 497.905C266.138 499.439 268.427 500.263 270.771 500.263C271.318 500.263 271.868 500.218 272.416 500.127C295.458 496.284 316.549 484.338 331.807 466.49C347.238 448.439 355.736 425.401 355.736 401.621V385.544C355.736 353.408 364.816 342.848 384.71 319.71C387.693 316.241 390.777 312.653 394.114 308.666C418.224 279.855 443.156 250.062 443.156 212.732C443.154 181.686 432.138 152.251 412.135 129.851Z" fill="#219BDA"/>
</svg>
