<svg width="512" height="512" viewBox="0 0 512 512" fill="none" xmlns="http://www.w3.org/2000/svg">
<path d="M255.999 456.914C251.941 456.914 248.202 454.36 246.709 450.593C245.176 446.726 246.258 442.18 249.378 439.424C252.385 436.768 256.822 436.181 260.419 437.946C264.299 439.849 266.554 444.21 265.87 448.475C265.102 453.264 260.863 456.914 255.999 456.914Z" fill="#E68D3B"/>
<path fill-rule="evenodd" clip-rule="evenodd" d="M508.562 243.988C511.782 246.747 512.857 251.352 511.286 255.345C511.274 255.377 495.292 292.243 492.454 298.307C483.574 317.282 460.944 349.487 430.407 378.656C403.207 404.636 359.101 438.34 303.442 451.358C302.677 451.537 301.91 451.623 301.156 451.623C296.616 451.623 292.507 448.51 291.428 443.899C290.17 438.521 293.51 433.143 298.888 431.885C350.155 419.895 391.195 388.456 416.593 364.195C449.348 332.906 468.305 302.726 474.341 289.827C475.413 287.538 478.484 280.568 481.821 272.941C464.048 279.205 436.375 285.24 395.635 285.285L389.972 285.808L389.828 285.82C375.043 286.973 343.02 292.384 315.394 302.563C296.947 309.36 266 323.862 266 344.612C266 350.135 261.523 354.611 256 354.611C250.478 354.611 246.001 350.135 246.001 344.612C246.001 323.862 215.054 309.36 196.607 302.563C168.981 292.384 136.958 286.973 122.173 285.82L122.029 285.808L116.366 285.285C75.6272 285.24 47.9527 279.205 30.1802 272.941C33.5169 280.568 36.5867 287.536 37.6586 289.824C43.6951 302.725 62.6464 332.898 95.3955 364.184C120.789 388.441 161.818 419.878 213.075 431.877C218.453 433.136 221.791 438.514 220.533 443.892C219.274 449.269 213.894 452.608 208.518 451.349C152.87 438.323 108.774 404.622 81.5817 378.644C51.0504 349.478 28.4254 317.278 19.5472 298.304C16.7074 292.243 0.725824 255.377 0.713825 255.345C-0.858037 251.352 0.216869 246.747 3.43759 243.987C13.0877 232.529 85.1554 147.244 134.006 97.319C144.703 85.5901 159.713 78.9456 177.426 78.0997C203.552 76.8578 234.195 88.4228 256 107.668C277.804 88.4228 308.447 76.8478 334.574 78.0997C352.288 78.9446 367.297 85.5891 377.995 97.318C380.601 99.9818 383.345 102.819 386.176 105.778L367.606 115.32C366.23 113.898 364.882 112.514 363.572 111.175C363.525 111.126 363.478 111.077 363.431 111.028C363.389 110.983 363.347 110.938 363.306 110.892C356.146 102.986 346.157 98.6729 333.619 98.074C312.336 97.0561 286.029 107.325 268.159 123.624C268.007 123.763 267.85 123.898 267.689 124.027C266.153 125.263 264.682 126.632 263.315 128.099C261.424 130.128 258.775 131.28 256.002 131.281C253.23 131.282 250.581 130.131 248.689 128.103C247.317 126.632 245.843 125.261 244.308 124.027C244.148 123.897 243.99 123.763 243.838 123.624C225.97 107.325 199.662 97.0621 178.379 98.074C165.84 98.6729 155.852 102.986 148.692 110.892C148.605 110.987 148.517 111.082 148.426 111.174C108.384 152.081 52.3043 217.334 28.7634 245.02C39.9174 246.919 54.2421 248.983 63.8183 248.983C77.1975 248.983 103.466 236.994 131.28 224.301L131.296 224.294L131.299 224.293C171.983 205.726 218.095 184.681 255.966 184.567C293.898 184.68 340.009 205.724 380.692 224.291L380.698 224.294C408.518 236.991 434.795 248.983 448.177 248.983C457.753 248.983 472.08 246.919 483.234 245.02C472.998 232.978 456.623 213.844 438.172 192.797L447.997 173.676C477.652 207.366 503.11 237.512 508.562 243.988ZM139.602 242.487C126.187 248.61 113.56 254.372 102.114 258.95H176.277V226.185C163.867 231.413 151.492 237.061 139.602 242.487ZM246 205.133C230.689 206.754 213.69 211.717 196.276 218.207V258.95H246V205.133ZM315.723 218.209C298.318 211.724 281.321 206.764 265.999 205.138V258.95H315.723V218.209ZM335.721 226.185V258.949H409.885C398.439 254.371 385.812 248.609 372.397 242.486L372.304 242.444C360.443 237.031 348.101 231.4 335.721 226.185ZM255.999 316.841C266.025 304.036 283.56 292.981 308.48 283.799C313.266 282.036 318.108 280.422 322.924 278.948H189.073C193.892 280.421 198.732 282.035 203.519 283.799C228.439 292.981 245.974 304.036 255.999 316.841Z" fill="#219BDA"/>
<path fill-rule="evenodd" clip-rule="evenodd" d="M447.997 173.676L454.99 160.063L495.3 139.346C498.633 137.634 500.729 134.201 500.729 130.453C500.729 126.705 498.633 123.273 495.3 121.56L454.99 100.844L434.278 60.5243C432.565 57.1906 429.132 55.0938 425.383 55.0938C421.635 55.0938 418.202 57.1896 416.489 60.5243L395.778 100.844L386.176 105.778L367.606 115.32C368.981 116.743 355.466 121.559 355.466 121.559C352.133 123.272 350.037 126.704 350.037 130.452C350.037 134.2 352.133 137.632 355.466 139.345L395.777 160.062L416.488 200.381C418.201 203.715 421.634 205.811 425.383 205.811C429.131 205.811 432.564 203.715 434.277 200.381L438.172 192.797L447.997 173.676ZM412.1 112.837C411.146 114.695 409.634 116.206 407.776 117.161L381.914 130.452L407.776 143.743C409.634 144.698 411.145 146.21 412.1 148.068L425.384 173.929L438.67 148.068C439.624 146.21 441.136 144.698 442.994 143.743L468.856 130.452L442.994 117.161C441.136 116.206 439.625 114.695 438.67 112.837L425.384 86.975L412.1 112.837Z" fill="#17C8DA"/>
</svg>
