<svg width="512" height="512" viewBox="0 0 512 512" fill="none" xmlns="http://www.w3.org/2000/svg">
<g clip-path="url(#clip0_7_445)">
<path d="M387.538 335.76C382.015 335.76 377.538 331.283 377.538 325.761V284.968C377.538 279.447 382.015 274.969 387.538 274.969C393.06 274.969 397.537 279.447 397.537 284.968V325.761C397.537 331.283 393.06 335.76 387.538 335.76Z" fill="#E68D3B"/>
<path d="M387.535 381.145C383.354 381.145 379.538 378.435 378.13 374.51C376.74 370.637 377.93 366.19 381.066 363.523C384.337 360.742 389.164 360.38 392.811 362.65C396.307 364.826 398.15 369.054 397.344 373.095C396.425 377.709 392.242 381.145 387.535 381.145Z" fill="#E68D3B"/>
<path d="M228.702 398.075C224.508 398.075 220.72 395.363 219.296 391.439C217.892 387.571 219.105 383.111 222.233 380.452C225.505 377.671 230.329 377.31 233.978 379.579C237.468 381.748 239.312 385.995 238.501 390.024C237.573 394.637 233.42 398.075 228.702 398.075Z" fill="#17C8DA"/>
<path d="M504.828 349.364L428.368 216.931C422.03 205.951 412.366 197.905 401 193.727C403.11 185.993 404.142 178.33 404.142 170.478C404.142 138.878 392.941 108.919 372.601 86.1219C351.019 61.9319 321.311 48.6094 288.95 48.6094C284.416 48.6094 270.617 48.6094 226.731 75.7943C211.52 85.2139 192.621 85.2139 177.411 75.7943C133.524 48.6094 119.726 48.6094 115.193 48.6094C82.8308 48.6094 53.1229 61.9309 31.5408 86.1219C11.2016 108.92 0 138.879 0 170.479C0 208.459 25.367 238.801 49.8991 268.144C53.2969 272.208 56.4378 275.864 59.4757 279.4C79.7689 303.025 89.0315 313.807 89.0315 346.641V363.03C89.0315 387.222 97.6692 410.661 113.355 429.027C128.865 447.187 150.307 459.342 173.731 463.253C174.279 463.345 174.83 463.39 175.377 463.39C177.726 463.39 180.021 462.562 181.84 461.021C184.083 459.122 185.377 456.331 185.377 453.391V321.158C185.377 311.878 192.652 304.128 201.596 303.883C206.144 303.756 210.445 305.434 213.701 308.602C216.968 311.78 218.765 316.041 218.765 320.572L218.7 342.542C218.683 348.065 223.147 352.556 228.67 352.572H228.7C234.209 352.572 238.683 348.114 238.7 342.602L238.765 320.602C238.765 310.596 234.816 301.245 227.646 294.268C220.486 287.302 211.05 283.625 201.046 283.892C181.378 284.431 165.377 301.149 165.377 321.159V440.702C132.113 430.012 109.03 399.029 109.03 363.029V346.64C109.03 306.395 96.0873 291.329 74.6451 266.369C71.6502 262.883 68.5543 259.277 65.2415 255.315C37.9135 222.627 19.9992 199.061 19.9992 170.479C19.9992 143.796 29.3979 118.566 46.4642 99.4364C64.2005 79.5572 88.6085 68.6096 115.193 68.6096C117.76 68.6096 127.471 69.9175 153.559 84.844L159.423 91.5977C175.925 110.606 197.638 123.499 222.213 128.885C230.518 130.704 238.879 131.609 247.199 131.609C263.505 131.609 279.646 128.134 294.827 121.27C299.858 118.995 302.093 113.071 299.818 108.039C297.542 103.007 291.619 100.772 286.587 103.048C260.297 114.935 231.249 114.312 206.516 102.73C217.185 102.011 227.73 98.7004 237.261 92.7967C273.493 70.3545 285.984 68.6096 288.949 68.6096C315.533 68.6096 339.941 79.5572 357.677 99.4364C374.743 118.566 384.142 143.796 384.142 170.479C384.142 177.199 383.15 183.781 381.119 190.499C362.575 190.98 346.06 200.784 336.738 216.932L260.278 349.365C250.715 365.927 250.715 385.704 260.278 402.267C263.865 408.479 268.516 413.752 273.937 417.917C264.328 428.54 252.239 436.354 238.723 440.707L238.699 433.168C238.681 427.656 234.208 423.201 228.699 423.201H228.666C223.143 423.219 218.68 427.711 218.698 433.232L218.763 453.421C218.773 456.355 220.07 459.137 222.313 461.029C224.13 462.563 226.419 463.387 228.763 463.387C229.31 463.387 229.861 463.342 230.409 463.25C254.99 459.147 276.845 446.339 292.486 426.985C296.846 428.123 301.408 428.716 306.09 428.716H459.01C478.135 428.716 495.262 418.827 504.824 402.265C514.387 385.702 514.391 365.927 504.828 349.364ZM487.508 392.267C481.561 402.569 470.909 408.718 459.013 408.718H306.093C294.198 408.718 283.546 402.569 277.598 392.267C271.65 381.965 271.65 369.665 277.598 359.364L354.058 226.931C360.006 216.63 370.659 210.479 382.553 210.479C394.449 210.479 405.1 216.63 411.049 226.931L487.509 359.364C493.457 369.665 493.457 381.965 487.508 392.267Z" fill="#219BDA"/>
</g>
<defs>
<clipPath id="clip0_7_445">
<rect width="512" height="512" fill="white"/>
</clipPath>
</defs>
</svg>
